<svg xmlns="http://www.w3.org/2000/svg">
   <svg id="hyperapp" viewBox="0 0 184 142">
     <g transform="matrix(1,0,0,1,-679.472,-320.978)">
       <path d="M833.435,337.673C843.823,337.673 851.737,340.765 857.178,346.948C861.08,351.382 863.011,356.516 862.97,362.349C862.979,364.66 862.661,367.07 862.016,369.579L837.531,462.327L794.109,462.327L815.256,381.821C815.998,379.101 815.503,376.875 813.772,375.143C812.041,373.412 809.691,372.547 806.723,372.546L746.622,372.546L734.307,419.114C733.983,421.579 734.569,423.617 736.064,425.228C737.672,426.959 739.959,427.824 742.928,427.825L793.012,427.825L783.737,462.327L679.472,462.327L716.572,320.978L760.349,320.978L755.897,337.673L833.435,337.673Z"/>
     </g>
   </svg>
   <svg id="github" viewBox="0 0 16 16">
     <path d="M8 0C3.58 0 0 3.582 0 8c0 3.535 2.292 6.533 5.47 7.59.4.075.547-.172.547-.385 0-.19-.007-.693-.01-1.36-2.226.483-2.695-1.073-2.695-1.073-.364-.924-.89-1.17-.89-1.17-.725-.496.056-.486.056-.486.803.056 1.225.824 1.225.824.714 1.223 1.873.87 2.33.665.072-.517.278-.87.507-1.07-1.777-.2-3.644-.888-3.644-3.953 0-.873.31-1.587.823-2.147-.09-.202-.36-1.015.07-2.117 0 0 .67-.215 2.2.82.64-.178 1.32-.266 2-.27.68.004 1.36.092 2 .27 1.52-1.035 2.19-.82 2.19-.82.43 1.102.16 1.915.08 2.117.51.56.82 1.274.82 2.147 0 3.073-1.87 3.75-3.65 3.947.28.24.54.73.54 1.48 0 1.07-.01 1.93-.01 2.19 0 .21.14.46.55.38C13.71 14.53 16 11.53 16 8c0-4.418-3.582-8-8-8"/>
   </svg>
   <svg id="slack" viewBox="0 0 16 16">
     <path d="M6.586 7.33l.69 2.057 2.137-.716-.69-2.05-2.137.72z"/>
     <path d="M12.55 9.37l-1.037.347.36 1.073c.145.434-.09.904-.524 1.05-.1.03-.19.045-.29.042-.34-.01-.65-.226-.77-.566l-.36-1.072-2.14.716.36 1.072c.14.435-.09.905-.53 1.05-.1.032-.19.045-.29.043-.34-.01-.65-.226-.77-.566l-.36-1.08-1.04.35c-.1.03-.19.04-.29.04-.34-.01-.65-.23-.77-.57-.15-.44.09-.91.52-1.05l1.04-.35L5 7.84l-1.034.35c-.094.032-.19.045-.285.043-.33-.01-.65-.225-.76-.565-.14-.433.09-.903.53-1.05l1.04-.346-.36-1.07c-.14-.436.09-.906.53-1.05.44-.147.91.09 1.05.522l.36 1.072L8.2 5.03l-.36-1.07c-.14-.43.09-.9.526-1.05.435-.14.906.09 1.05.528l.36 1.08 1.037-.34c.434-.146.904.09 1.05.52.145.436-.09.906-.523 1.05l-1.038.35.69 2.057 1.034-.344c.435-.14.905.09 1.05.53.146.44-.09.91-.52 1.05zm2.78-3.57C13.68.304 11.298-.98 5.8.67.304 2.32-.98 4.7.67 10.2c1.65 5.497 4.03 6.78 9.53 5.13 5.497-1.65 6.78-4.03 5.13-9.53z"/>
  </svg>
  <svg id="twitter" viewBox="0 0 16 16">
    <path d="M16 3.038c-.59.26-1.22.437-1.885.517.677-.407 1.198-1.05 1.443-1.816-.634.37-1.337.64-2.085.79-.598-.64-1.45-1.04-2.396-1.04-1.812 0-3.282 1.47-3.282 3.28 0 .26.03.51.085.75-2.728-.13-5.147-1.44-6.766-3.42C.83 2.58.67 3.14.67 3.75c0 1.14.58 2.143 1.46 2.732-.538-.017-1.045-.165-1.487-.41v.04c0 1.59 1.13 2.918 2.633 3.22-.276.074-.566.114-.865.114-.21 0-.41-.02-.61-.058.42 1.304 1.63 2.253 3.07 2.28-1.12.88-2.54 1.404-4.07 1.404-.26 0-.52-.015-.78-.045 1.46.93 3.18 1.474 5.04 1.474 6.04 0 9.34-5 9.34-9.33 0-.14 0-.28-.01-.42.64-.46 1.2-1.04 1.64-1.7z" fill-rule="nonzero"/>
  </svg>
</svg>
